<svg class="svg-icon" style="width: 1em; height: 1em;vertical-align: middle;fill: currentColor;overflow: hidden;" viewBox="0 0 1024 1024" version="1.1" xmlns="http://www.w3.org/2000/svg"><path d="M512 512m-469.333333 0a469.333333 469.333333 0 1 0 938.666666 0 469.333333 469.333333 0 1 0-938.666666 0Z" fill="#F6F7F9" /><path d="M981.333333 512A469.333333 469.333333 0 1 0 70.72 672h882.56A467.626667 467.626667 0 0 0 981.333333 512z" fill="#F6F7F9" /><path d="M512 981.333333a469.333333 469.333333 0 0 0 441.28-309.333333H70.72A469.333333 469.333333 0 0 0 512 981.333333z" fill="#E3E4E8" /><path d="M169.92 454.293333h69.44V280.746667l-69.44 173.546666z" fill="#EEEFF3" opacity=".6" /><path d="M239.36 454.293333h69.333333l-69.333333-173.546666v173.546666z" fill="#EBEDF1" opacity=".6" /><path d="M752.64 505.92h69.44V332.48l-69.44 173.44z" fill="#EEEFF3" opacity=".6" /><path d="M822.08 505.92h69.44l-69.44-173.44v173.44z" fill="#EBEDF1" opacity=".6" /><path d="M585.386667 783.573333h112V503.573333l-112 280z" fill="#D2D6DE" /><path d="M697.386667 783.573333h112l-112-280v280z" fill="#C7CCD4" /><path d="M549.226667 277.546667h50.24V152l-50.24 125.546667z" fill="#F2F3F6" /><path d="M599.466667 277.546667h50.24L599.466667 152v125.546667z" fill="#F1F2F5" /><path d="M233.813333 522.773333h74.773334V335.786667l-74.773334 186.986666z" fill="#E7E9EE" /><path d="M308.586667 522.773333h74.773333l-74.773333-186.986666v186.986666z" fill="#E2E5E9" /><path d="M440.533333 606.933333V672l-20.053333-2.88-20.053333-25.386667 24.32-36.8h15.786666z" fill="#8F95A3" opacity=".8" /><path d="M170.666667 548.266667L97.28 731.733333a471.146667 471.146667 0 0 0 54.933333 81.6H170.666667z" fill="#C7CCD6" /><path d="M276.693333 813.333333L170.666667 548.373333v264.96h106.026666z" fill="#B8BFC8" /><path d="M661.333333 906.666667h104.533334a466.773333 466.773333 0 0 0 44.8-32.64V533.333333z" fill="#A7B0BF" /><path d="M810.666667 874.026667a471.36 471.36 0 0 0 94.186666-105.28L810.666667 533.333333z" fill="#8E99A8" /><path d="M781.546667 464.32h70.506666V288.213333l-70.506666 176.106667z" fill="#A7B0BF" opacity=".32" /><path d="M852.053333 464.32h70.4l-70.4-176.106667v176.106667z" fill="#8E99A8" opacity=".32" /><path d="M373.866667 174.186667h34.986666v-96l-34.986666 96z" fill="#A7B0BF" opacity=".04" /><path d="M408.853333 174.186667h34.986667l-34.986667-96v96z" fill="#8E99A8" opacity=".04" /><path d="M298.666667 629.333333l0.213333 0.213334 0.106667-0.213334H298.666667z" fill="#8E99A8" /><path d="M528.853333 643.626667h-97.813333L480 692.48l48.853333-48.853333z" fill="#A5B4BB" /><path d="M430.613333 643.626667H332.8l48.96 48.853333 48.853333-48.853333z" fill="#BDC5CF" /><path d="M381.76 692.586667h97.813333l-48.853333-48.853334-48.96 48.853334z" fill="#8F95A3" /><path d="M469.866667 714.666667v-0.213334l-0.213334 0.213334h0.213334z" fill="#8E99A8" /><path d="M407.786667 608.746667h44.48l-22.186667-25.706667-22.293333 25.706667z" fill="#8F95A3" /></svg>